<svg xmlns="http://www.w3.org/2000/svg" width="100%" viewBox="-71.07 -70.97 1852.10 702.34" ><path fill-rule="evenodd" clip-rule="evenodd" d="M1511.77 1.34669C1490.11 4.05769 1485.35 9.13769 1482.49 32.5417C1480.16 51.6207 1464.42 165.684 1452.5 249.874C1437.29 357.363 1436.99 368.097 1448.68 387.607C1461.87 409.614 1490.55 418.948 1520.51 410.987C1543.25 404.947 1550.12 396.874 1550.38 375.874C1550.59 359.566 1546.83 354.886 1533.51 354.876C1516.95 354.864 1513.26 346.616 1517.48 318.993C1518.29 313.703 1523.05 280.124 1528.06 244.374C1536.52 183.984 1544.03 130.889 1552.39 72.3737C1561.26 10.3467 1561.14 12.9847 1555.17 6.58669C1550.04 1.09369 1531.59 -1.13531 1511.77 1.34669ZM1668.51 0.529688C1639.96 3.92569 1633.46 8.55569 1631.52 26.8737C1631.15 30.4487 1627.29 58.5737 1622.94 89.3737C1618.6 120.174 1612.78 162.699 1610.01 183.874C1607.25 205.049 1602.75 238.799 1600.01 258.874C1586.59 357.448 1586.26 369.317 1596.35 388.344C1608.13 410.554 1639.52 420.512 1670.92 412C1692.74 406.086 1700.01 397.374 1700.01 377.153C1700.01 362.787 1696 358.331 1682.34 357.558C1670.55 356.891 1666.12 352.945 1665.22 342.307C1664.71 336.274 1665.88 326.745 1674.98 262.374C1712.43 -2.3743 1710.45 14.5077 1704.92 7.48469C1700.47 1.82069 1684.04 -1.31631 1668.51 0.529688ZM164.514 3.87169C134.56 7.14569 104.192 25.4767 88.5208 49.7447C74.0088 72.2157 66.8709 94.9857 61.5529 135.76C59.5839 150.858 58.6479 155.421 57.3199 156.392C56.1709 157.233 49.7368 157.789 37.5648 158.1C16.6558 158.635 13.2008 159.583 7.16584 166.439C-1.00216 175.718 -2.47615 192.438 4.23985 199.629C9.10485 204.838 11.2368 205.328 31.4078 205.868C47.6688 206.303 50.4489 206.608 51.3589 208.055C52.5129 209.889 51.6628 218.068 43.0108 288.374C29.8698 395.176 29.7069 396.781 31.5339 401.565C35.1669 411.079 42.2918 413.288 67.3928 412.682C96.3138 411.985 98.3379 409.858 101.95 376.374C103.018 366.474 105.509 344.424 107.487 327.374C112.416 284.879 116.735 247.195 118.664 229.874C121.519 204.223 119.644 205.874 145.925 205.874C174.5 205.874 181.599 203.649 187.501 192.843C191.669 185.212 191.964 170.349 188.06 164.648C183.227 157.59 182.441 157.413 154.314 157.036C135.209 156.78 128.853 156.385 128.036 155.4C126.984 154.133 128.552 133.563 131.085 115.374C134.555 90.4657 143.604 72.0427 156.686 63.2477C168.282 55.4517 172.279 54.5967 199.014 54.1937C228.034 53.7547 228.117 53.7417 233.688 48.6067C246.258 37.0197 248.919 16.0777 238.705 9.12869C232.085 4.62569 186.908 1.42369 164.514 3.87169ZM994.514 4.45969C974.699 7.27569 966.145 12.5197 962.994 23.7847C962.191 26.6527 946.055 138.612 943.413 159.646C942.531 166.667 942.098 166.751 933.899 161.505C903.881 142.3 862.741 141.963 825.514 160.618C783.381 181.73 752.29 223.646 742.619 272.374C728.96 341.196 749.951 395.056 796.597 410.873C814.948 417.097 846.34 416.367 867.724 409.221C888.035 402.434 907.672 388.491 922.007 370.679C925.786 365.983 925.786 365.983 926.243 375.679C927.481 401.914 942.818 413.9 973.514 412.622C1000.22 411.51 1010.5 401.523 1010.51 376.7C1010.51 363.925 1009.46 361.855 1000.75 357.602C992.828 353.731 992.191 351.169 994.474 332.374C996.296 317.372 1010.43 218.105 1019.39 157.374C1025.88 113.401 1036.76 35.8467 1037.62 27.3737C1038.77 16.1497 1034.39 8.51269 1025.29 5.89569C1021.3 4.74869 999.607 3.73569 994.514 4.45969ZM1250.51 14.4487C1220.24 18.6897 1221.02 18.0037 1201.29 57.3737C1163.84 132.076 1045.2 381.339 1042.86 390.232C1040.53 399.07 1046.16 408.209 1055.63 410.956C1063.49 413.238 1101.65 412.943 1109.51 410.541C1119.72 407.423 1124.93 401.027 1133.68 380.874C1153.31 335.685 1162.18 316.26 1163.71 315.124C1165.02 314.155 1179.92 313.866 1229.95 313.836C1265.46 313.815 1296.16 313.559 1298.18 313.266C1306.74 312.023 1306.49 311.506 1316.44 351.027C1328.6 399.319 1328.23 398.182 1333.99 403.942C1341.53 411.486 1345.64 412.374 1373.01 412.374C1402.43 412.374 1408.03 410.377 1411.12 398.786C1412.55 393.403 1413.98 399.594 1396.71 336.374C1389.8 311.074 1378.68 269.899 1372.02 244.874C1356.24 185.653 1340.42 128.307 1327.32 82.8737C1321.54 62.7987 1315.9 43.2237 1314.79 39.3737C1310.34 23.8987 1304.96 18.4857 1291.49 15.9217C1285.36 14.7537 1255.89 13.6947 1250.51 14.4487ZM1256.94 106.624C1274.7 173.319 1293.11 249.048 1291.92 250.484C1290.21 252.552 1191.21 252.556 1190.42 250.488C1189.79 248.851 1227.74 159.917 1244.23 124.374C1247.55 117.224 1251.09 109.462 1252.1 107.124C1254.37 101.887 1255.64 101.756 1256.94 106.624ZM618.014 148.394C593.86 152.163 570.326 164.664 554.535 182.114C551.499 185.469 549.014 188.588 549.014 189.044C549.014 189.501 548.656 189.874 548.218 189.874C547.781 189.874 548.065 185.037 548.849 179.124C551.955 155.725 543.834 148.042 517.151 149.134C489.213 150.278 484.087 155.561 480.526 186.874C478.891 201.255 474.43 233.506 460.885 328.874C450.619 401.149 450.658 403.246 462.382 409.288C473.216 414.872 502.631 414.039 512.354 407.873C519.802 403.15 521.784 398.532 524.006 380.72C537.182 275.087 538.305 269.123 549.013 247.861C566.521 213.096 606.475 193.457 629.244 208.424C641.433 216.436 641.377 217.636 622.485 352.374C616.093 397.962 616.739 403.235 629.514 409.803C636.793 413.546 666.541 413.719 674.502 410.065C684.597 405.432 687.583 400.421 689.054 385.647C690.426 371.867 692.326 356.891 697.017 322.874C699.18 307.199 702.625 282.224 704.674 267.374C713.836 200.981 708.755 173.856 684.211 158.14C668.999 148.4 642.746 144.535 618.014 148.394ZM417.245 148.951C399.234 152.067 394.432 158.231 382.636 193.374C368.384 235.833 327.18 346.042 324.589 348.632C323.817 349.404 324.076 349.888 318.278 336.874C300.401 296.745 289.688 259.663 281.01 207.874C275.171 173.031 272.736 164.999 265.62 157.124C250.617 140.516 212.975 149.428 206.536 171.112C195.639 207.807 245.909 367.618 284.718 419.658C287.533 423.432 286.225 426.579 275.467 441.909C252.949 473.998 226.691 491.505 193.571 496.51C173.606 499.527 167.266 503.289 162.972 514.666C155.715 533.897 166.554 553.471 186.37 556.922C219.966 562.773 271.144 541.048 304.592 506.737C336.058 474.46 352.83 443.825 396.219 339.374C402.845 323.424 414.243 296.874 421.548 280.374C456.057 202.434 463.638 175.327 454.887 161.168C449.061 151.742 432.391 146.331 417.245 148.951ZM902.554 202.404C927.533 208.819 936.168 222.405 932.567 249.628C923.525 318.003 879.027 368.937 838.832 356.919C817.85 350.645 809.003 322.458 815.592 282.874C825.016 226.248 862.029 191.998 902.554 202.404ZM1227.56 459.888C1159.99 463.126 1063.88 477.134 1046.08 486.337C1032.29 493.468 1031.08 520.934 1044.17 529.598C1050.56 533.822 1057.77 533.807 1080.58 529.525C1131.28 520.005 1159.75 515.841 1211.01 510.449C1284.35 502.736 1309.72 501.584 1413.23 501.263C1477.8 501.063 1503.53 500.667 1505.06 499.849C1511.96 496.155 1511.33 480.158 1504.14 476.437C1496.71 472.595 1417.16 464.443 1352.01 460.848C1326.49 459.439 1249.35 458.844 1227.56 459.888Z" fill="#2E6490"/></svg>