<svg xmlns="http://www.w3.org/2000/svg" width="100%" viewBox="997.01 -109.02 749.49 749.49" ><rect width="100%" height="100%" rx="22%" fill="#6A9AC0"/><path fill-rule="evenodd" clip-rule="evenodd" d="M1227.56 459.888C1159.99 463.126 1063.88 477.134 1046.08 486.337C1032.29 493.468 1031.08 520.934 1044.17 529.598C1050.56 533.822 1057.77 533.807 1080.58 529.525C1131.28 520.005 1159.75 515.841 1211.01 510.449C1284.35 502.736 1309.72 501.584 1413.23 501.263C1477.8 501.063 1503.53 500.667 1505.06 499.849C1511.96 496.155 1511.33 480.158 1504.14 476.437C1496.71 472.595 1417.16 464.443 1352.01 460.848C1326.49 459.439 1249.35 458.844 1227.56 459.888Z M1250.51 14.4487C1220.24 18.6897 1221.02 18.0037 1201.29 57.3737C1163.84 132.076 1045.2 381.339 1042.86 390.232C1040.53 399.07 1046.16 408.209 1055.63 410.956C1063.49 413.238 1101.65 412.943 1109.51 410.541C1119.72 407.423 1124.93 401.027 1133.68 380.874C1153.31 335.685 1162.18 316.26 1163.71 315.124C1165.02 314.155 1179.92 313.866 1229.95 313.836C1265.46 313.815 1296.16 313.559 1298.18 313.266C1306.74 312.023 1306.49 311.506 1316.44 351.027C1328.6 399.319 1328.23 398.182 1333.99 403.942C1341.53 411.486 1345.64 412.374 1373.01 412.374C1402.43 412.374 1408.03 410.377 1411.12 398.786C1412.55 393.403 1413.98 399.594 1396.71 336.374C1389.8 311.074 1378.68 269.899 1372.02 244.874C1356.24 185.653 1340.42 128.307 1327.32 82.8737C1321.54 62.7987 1315.9 43.2237 1314.79 39.3737C1310.34 23.8987 1304.96 18.4857 1291.49 15.9217C1285.36 14.7537 1255.89 13.6947 1250.51 14.4487Z M1256.94 106.624C1274.7 173.319 1293.11 249.048 1291.92 250.484C1290.21 252.552 1191.21 252.556 1190.42 250.488C1189.79 248.851 1227.74 159.917 1244.23 124.374C1247.55 117.224 1251.09 109.462 1252.1 107.124C1254.37 101.887 1255.64 101.756 1256.94 106.624Z M1511.77 1.34669C1490.11 4.05769 1485.35 9.13769 1482.49 32.5417C1480.16 51.6207 1464.42 165.684 1452.5 249.874C1437.29 357.363 1436.99 368.097 1448.68 387.607C1461.87 409.614 1490.55 418.948 1520.51 410.987C1543.25 404.947 1550.12 396.874 1550.38 375.874C1550.59 359.566 1546.83 354.886 1533.51 354.876C1516.95 354.864 1513.26 346.616 1517.48 318.993C1518.29 313.703 1523.05 280.124 1528.06 244.374C1536.52 183.984 1544.03 130.889 1552.39 72.3737C1561.26 10.3467 1561.14 12.9847 1555.17 6.58669C1550.04 1.09369 1531.59 -1.13531 1511.77 1.34669Z M1668.51 0.529688C1639.96 3.92569 1633.46 8.55569 1631.52 26.8737C1631.15 30.4487 1627.29 58.5737 1622.94 89.3737C1618.6 120.174 1612.78 162.699 1610.01 183.874C1607.25 205.049 1602.75 238.799 1600.01 258.874C1586.59 357.448 1586.26 369.317 1596.35 388.344C1608.13 410.554 1639.52 420.512 1670.92 412C1692.74 406.086 1700.01 397.374 1700.01 377.153C1700.01 362.787 1696 358.331 1682.34 357.558C1670.55 356.891 1666.12 352.945 1665.22 342.307C1664.71 336.274 1665.88 326.745 1674.98 262.374C1712.43 -2.3743 1710.45 14.5077 1704.92 7.48469C1700.47 1.82069 1684.04 -1.31631 1668.51 0.529688Z" fill="#FFFFFF"/></svg>