<svg xmlns="http://www.w3.org/2000/svg" width="512" height="512" viewBox="0 0 512 512">
  <rect width="512" height="512" rx="112" fill="#F5F7FA"/>
  <svg x="82" y="96" width="348" height="348" viewBox="252.25 33.95 150.05 148.25" preserveAspectRatio="xMidYMid meet">
    <path fill="#6A9AC0" d="M 67.12 143.15 L 59.00 143.05 L 57.94 142.38 L 56.98 141.12 L 56.95 139.38 L 57.55 135.62 L 57.82 131.12 L 58.30 128.62 L 58.70 123.62 L 59.55 119.25 L 59.82 115.25 L 60.68 109.62 L 60.95 104.62 L 61.55 101.75 L 61.80 98.75 L 61.55 98.12 L 60.88 97.82 L 53.25 97.80 L 51.25 96.93 L 49.97 95.50 L 49.70 94.50 L 49.82 92.00 L 50.24 90.25 L 51.50 88.31 L 52.25 87.57 L 53.38 86.85 L 54.38 86.58 L 62.00 86.55 L 62.75 86.39 L 63.25 85.91 L 63.55 85.38 L 64.70 74.50 L 65.85 70.00 L 66.65 68.38 L 67.23 66.50 L 69.10 62.75 L 71.00 59.88 L 73.63 57.00 L 76.38 54.95 L 80.12 52.85 L 81.50 52.51 L 82.38 51.98 L 83.75 51.65 L 85.25 50.98 L 86.62 50.70 L 89.50 50.55 L 90.88 50.24 L 94.38 50.19 L 100.50 50.57 L 103.62 51.07 L 105.38 51.60 L 106.19 52.12 L 106.90 53.12 L 107.06 54.25 L 106.67 56.38 L 105.65 59.00 L 104.43 60.62 L 103.25 61.68 L 101.38 62.44 L 96.12 61.94 L 92.50 61.94 L 90.00 62.48 L 88.25 63.22 L 85.31 65.25 L 84.10 66.62 L 82.10 70.00 L 81.23 72.62 L 80.90 74.62 L 80.45 75.88 L 79.82 81.38 L 79.68 84.38 L 79.38 85.65 L 79.75 86.09 L 80.38 86.31 L 85.88 86.15 L 90.88 86.42 L 92.62 86.19 L 93.62 86.48 L 94.62 87.25 L 95.40 88.50 L 95.69 90.12 L 95.43 92.12 L 94.65 94.62 L 93.78 95.75 L 92.00 97.02 L 88.25 97.69 L 78.62 97.82 L 77.88 98.40 L 77.32 101.38 L 76.93 106.25 L 76.20 110.62 L 76.05 113.62 L 75.32 117.62 L 75.05 122.50 L 74.45 125.62 L 74.05 130.88 L 73.32 134.12 L 72.90 140.12 L 72.05 141.62 L 70.25 142.78 L 69.38 143.05 L 67.12 143.15 Z M 374.00 144.63 L 371.25 144.68 L 367.38 143.90 L 365.25 142.78 L 363.97 141.88 L 362.75 140.69 L 361.98 139.75 L 360.85 137.62 L 360.32 135.62 L 359.95 133.00 L 359.94 130.12 L 360.55 124.75 L 360.95 118.38 L 361.68 113.75 L 361.95 109.25 L 362.55 106.25 L 363.07 99.75 L 363.29 99.25 L 363.55 97.12 L 363.95 91.62 L 364.39 89.75 L 364.82 85.25 L 365.68 79.62 L 365.95 75.25 L 366.68 71.00 L 366.95 67.25 L 367.68 63.00 L 368.07 56.25 L 369.00 54.34 L 370.50 53.11 L 372.50 52.45 L 376.38 51.95 L 381.75 52.35 L 382.50 52.61 L 383.50 53.32 L 384.18 54.50 L 384.30 56.50 L 382.93 70.62 L 382.32 74.25 L 381.68 81.75 L 380.20 92.62 L 379.93 95.88 L 379.32 98.62 L 379.02 104.00 L 378.20 108.38 L 377.93 112.50 L 377.20 116.62 L 376.31 126.00 L 376.32 128.88 L 377.00 130.54 L 378.12 131.40 L 379.00 131.60 L 380.62 131.57 L 381.75 132.03 L 382.77 133.50 L 383.06 135.25 L 382.93 139.25 L 382.65 140.50 L 382.00 141.65 L 380.50 142.90 L 378.25 143.90 L 374.00 144.63 Z M 344.50 142.14 L 342.50 142.17 L 339.88 141.90 L 337.25 140.77 L 334.95 139.00 L 333.88 137.77 L 332.97 136.12 L 332.64 134.75 L 331.98 133.25 L 331.70 131.62 L 331.56 128.50 L 332.07 121.62 L 332.80 116.88 L 333.32 110.75 L 333.80 108.25 L 334.07 102.62 L 334.80 99.75 L 335.07 94.38 L 335.80 90.88 L 336.20 85.62 L 336.80 82.25 L 337.20 75.88 L 337.68 74.00 L 338.20 67.25 L 338.93 63.00 L 338.95 61.38 L 339.60 55.75 L 340.19 54.38 L 342.00 52.94 L 344.00 52.45 L 349.75 52.06 L 353.38 52.45 L 354.62 52.98 L 355.40 54.12 L 355.67 56.00 L 355.20 59.25 L 354.93 64.00 L 354.45 65.38 L 353.93 71.00 L 353.20 75.25 L 352.93 80.25 L 351.36 90.50 L 350.93 97.50 L 349.45 108.00 L 348.93 114.25 L 348.32 117.38 L 348.18 120.38 L 347.33 126.50 L 347.72 128.12 L 348.32 129.12 L 348.88 129.53 L 349.75 129.80 L 352.12 129.76 L 353.31 130.38 L 353.93 131.50 L 354.06 134.25 L 353.77 137.00 L 352.62 138.93 L 351.50 139.77 L 349.62 140.77 L 346.38 141.90 L 344.50 142.14 Z M 208.25 144.27 L 205.88 144.31 L 200.88 143.87 L 196.75 142.03 L 194.00 139.93 L 192.69 138.62 L 190.10 135.25 L 188.91 133.12 L 187.73 129.75 L 186.82 125.12 L 186.69 118.62 L 187.07 114.75 L 187.68 112.50 L 187.95 110.25 L 189.98 104.50 L 192.10 100.50 L 193.25 98.84 L 198.25 93.06 L 200.50 91.12 L 203.00 89.52 L 203.38 89.10 L 208.12 86.73 L 210.50 85.85 L 214.12 85.07 L 216.12 84.81 L 219.50 84.95 L 221.38 85.20 L 224.75 86.10 L 227.25 87.22 L 230.12 89.09 L 230.75 89.11 L 231.05 88.62 L 231.43 86.75 L 232.32 76.88 L 232.80 74.25 L 232.95 71.62 L 234.07 62.38 L 234.57 58.38 L 235.09 56.62 L 236.34 55.12 L 238.75 53.95 L 243.25 53.44 L 247.12 53.44 L 248.67 53.75 L 249.53 54.25 L 249.90 54.75 L 250.52 56.12 L 250.55 57.25 L 250.07 59.62 L 250.05 61.38 L 248.95 69.38 L 248.68 73.62 L 248.45 74.25 L 247.20 84.12 L 247.05 87.38 L 246.32 92.12 L 246.18 95.50 L 245.32 100.12 L 245.05 104.50 L 244.68 107.25 L 244.32 108.38 L 244.05 112.00 L 243.45 114.88 L 243.20 117.25 L 243.05 120.50 L 242.19 125.62 L 242.19 129.38 L 242.35 130.12 L 242.75 130.68 L 244.90 132.12 L 245.55 133.25 L 245.30 137.50 L 244.88 139.42 L 244.15 140.88 L 243.50 141.68 L 242.38 142.52 L 240.50 143.27 L 238.75 143.68 L 235.62 143.81 L 232.00 142.90 L 229.88 141.68 L 228.75 140.62 L 227.85 139.12 L 227.19 135.88 L 227.69 132.50 L 227.64 132.00 L 227.38 131.85 L 225.05 135.38 L 222.62 137.81 L 220.15 139.88 L 218.75 140.77 L 214.50 142.89 L 213.38 143.10 L 211.38 143.93 L 208.25 144.27 Z M 325.00 142.51 L 315.50 142.18 L 314.38 141.78 L 312.62 140.81 L 310.88 138.91 L 309.98 137.38 L 308.82 133.25 L 308.55 130.88 L 307.95 129.38 L 306.65 122.75 L 306.37 122.12 L 305.38 121.69 L 295.12 121.69 L 285.62 121.94 L 276.38 121.74 L 275.48 122.88 L 275.01 124.38 L 274.23 125.75 L 273.77 127.62 L 272.36 130.25 L 268.91 138.38 L 267.93 139.88 L 266.88 140.90 L 265.00 141.97 L 264.25 142.18 L 256.50 142.44 L 253.75 142.30 L 252.45 142.00 L 251.12 141.15 L 249.98 139.50 L 250.10 138.00 L 250.98 135.25 L 251.88 133.20 L 252.72 131.88 L 255.97 124.25 L 258.59 119.38 L 258.98 118.12 L 260.65 114.75 L 260.98 113.62 L 262.52 110.62 L 262.91 109.38 L 263.52 108.50 L 264.99 105.12 L 268.59 98.00 L 271.10 91.50 L 275.59 82.75 L 278.00 76.95 L 278.65 75.88 L 279.00 74.70 L 283.89 64.88 L 286.09 59.50 L 286.94 58.12 L 287.97 57.12 L 290.50 55.98 L 293.50 55.20 L 297.25 54.81 L 300.62 54.82 L 304.25 55.73 L 306.62 56.78 L 307.74 57.88 L 308.02 58.50 L 309.02 61.25 L 310.23 66.75 L 310.90 68.38 L 311.35 70.75 L 312.15 73.12 L 312.32 74.50 L 313.77 78.88 L 315.45 85.88 L 315.90 86.88 L 316.35 89.12 L 317.77 93.62 L 320.48 104.75 L 321.77 109.12 L 322.23 111.88 L 322.77 113.25 L 323.80 117.25 L 324.20 119.62 L 325.11 122.50 L 325.35 124.25 L 325.90 125.62 L 326.60 129.25 L 329.30 139.12 L 329.40 140.38 L 328.62 141.93 L 328.00 142.30 L 325.00 142.51 Z M 112.50 78.02 L 109.75 77.93 L 108.62 77.65 L 106.62 76.91 L 105.21 76.00 L 104.00 74.79 L 103.10 73.25 L 102.32 70.88 L 102.32 68.62 L 102.73 67.00 L 103.47 65.50 L 104.57 64.00 L 105.71 62.88 L 107.38 61.84 L 109.00 61.10 L 111.12 60.70 L 112.88 60.70 L 114.88 60.98 L 117.66 62.50 L 119.31 64.25 L 119.90 65.25 L 120.80 68.12 L 120.68 69.88 L 120.15 72.25 L 118.81 74.50 L 116.25 76.77 L 112.50 78.02 Z M 302.67 108.75 L 303.01 108.50 L 303.13 108.00 L 302.68 105.25 L 301.98 103.00 L 301.68 100.50 L 300.98 98.25 L 299.68 92.00 L 298.85 89.38 L 298.55 87.38 L 296.95 81.00 L 296.15 75.88 L 296.00 75.38 L 295.75 75.30 L 295.23 76.00 L 294.02 79.88 L 293.23 81.25 L 291.77 85.25 L 291.23 86.25 L 290.89 87.62 L 290.16 88.62 L 289.88 89.55 L 288.23 92.75 L 283.10 105.38 L 282.90 106.38 L 282.10 107.50 L 281.92 108.38 L 282.12 108.64 L 282.88 108.81 L 302.67 108.75 Z M 168.88 143.15 L 164.88 143.01 L 164.00 142.77 L 162.09 141.62 L 161.20 139.88 L 161.07 138.12 L 161.68 134.75 L 161.95 131.12 L 162.55 127.88 L 162.82 123.00 L 163.68 118.25 L 163.95 113.00 L 164.68 108.75 L 164.73 103.12 L 164.52 101.38 L 163.53 99.25 L 161.88 98.27 L 159.25 97.81 L 157.12 97.98 L 153.50 99.23 L 150.88 101.32 L 149.32 102.88 L 148.25 104.35 L 145.16 109.62 L 143.35 114.12 L 142.32 117.88 L 141.93 122.25 L 141.32 124.88 L 140.93 130.62 L 140.32 133.38 L 139.93 139.25 L 139.77 140.00 L 139.06 141.38 L 138.50 141.89 L 136.38 142.77 L 135.12 143.05 L 132.62 143.19 L 126.38 143.05 L 125.50 142.77 L 123.97 141.38 L 123.69 140.38 L 123.82 138.62 L 124.55 134.00 L 125.07 127.38 L 125.68 124.00 L 125.95 118.62 L 126.80 115.62 L 127.07 109.62 L 127.80 105.62 L 128.07 101.62 L 128.80 96.62 L 129.07 89.75 L 129.60 88.25 L 131.00 86.85 L 132.75 85.85 L 133.75 85.69 L 140.88 85.40 L 142.12 85.60 L 143.16 86.12 L 144.12 87.10 L 144.68 88.50 L 144.68 92.38 L 144.06 96.38 L 144.12 96.88 L 144.38 97.04 L 147.00 93.25 L 151.25 89.10 L 155.12 86.78 L 156.88 85.99 L 160.25 84.95 L 166.25 84.44 L 171.62 85.35 L 173.38 86.09 L 175.29 87.25 L 177.68 89.25 L 179.00 90.85 L 179.90 92.75 L 180.93 96.62 L 181.19 102.38 L 180.93 107.00 L 180.57 108.62 L 179.93 116.00 L 179.45 118.62 L 178.80 126.50 L 178.32 129.00 L 177.68 135.75 L 177.45 136.38 L 177.30 140.25 L 177.02 141.25 L 176.62 141.75 L 175.00 142.77 L 173.50 143.06 L 168.88 143.15 Z M 104.75 143.15 L 99.00 143.17 L 97.62 142.90 L 96.19 141.88 L 95.56 140.25 L 95.57 138.38 L 96.55 133.25 L 96.95 127.00 L 97.55 124.00 L 98.07 117.38 L 98.80 112.75 L 99.07 108.00 L 99.55 105.75 L 99.82 102.12 L 100.68 97.25 L 101.07 90.00 L 101.36 89.00 L 102.00 88.06 L 103.00 87.23 L 104.38 86.48 L 106.38 85.95 L 108.00 85.81 L 112.62 85.69 L 114.62 85.82 L 115.88 86.23 L 116.88 87.09 L 117.52 88.62 L 117.56 89.75 L 116.32 97.25 L 116.18 99.75 L 115.45 104.38 L 114.93 110.88 L 114.20 114.62 L 113.80 119.62 L 113.45 121.00 L 112.80 129.25 L 112.45 130.38 L 111.43 139.38 L 110.96 141.00 L 109.75 142.15 L 107.75 143.05 L 104.75 143.15 Z M 212.06 132.12 L 213.88 131.65 L 217.38 129.90 L 220.56 126.88 L 222.65 124.00 L 224.78 120.25 L 225.91 117.50 L 226.65 116.25 L 226.98 114.62 L 227.65 113.00 L 228.68 108.50 L 228.85 104.88 L 228.65 103.38 L 227.62 101.10 L 226.00 99.32 L 224.25 98.22 L 221.88 97.23 L 219.38 96.94 L 216.38 97.07 L 213.38 98.23 L 211.50 99.57 L 209.44 101.50 L 207.48 104.25 L 205.38 108.32 L 204.35 111.12 L 203.20 117.62 L 203.19 120.38 L 203.45 123.88 L 204.36 127.38 L 205.32 129.00 L 207.00 130.65 L 209.25 131.77 L 211.38 132.18 L 212.06 132.12 Z M 258.38 166.52 L 257.12 166.43 L 255.12 165.77 L 254.07 164.75 L 253.73 164.00 L 253.56 162.50 L 253.85 159.38 L 254.62 158.19 L 255.88 157.22 L 256.50 156.85 L 258.88 156.10 L 261.50 155.68 L 264.25 154.95 L 278.00 152.82 L 279.88 152.80 L 284.38 152.20 L 293.38 151.56 L 300.25 151.44 L 313.00 151.56 L 323.38 152.06 L 327.50 152.55 L 335.50 153.07 L 345.75 154.57 L 347.25 155.11 L 347.75 155.57 L 348.54 157.62 L 347.81 159.50 L 347.00 160.02 L 346.25 160.18 L 323.38 159.94 L 304.50 160.19 L 299.75 160.93 L 291.25 161.32 L 288.75 161.93 L 282.75 162.32 L 279.12 163.05 L 275.25 163.32 L 273.12 163.93 L 270.25 164.20 L 267.62 164.93 L 264.88 165.20 L 262.12 165.93 L 258.38 166.52 Z"/>
  </svg>
</svg>